<?xml version="1.0" encoding="UTF-8" standalone="no"?>
<!DOCTYPE svg PUBLIC "-//W3C//DTD SVG 1.1//EN" "http://www.w3.org/Graphics/SVG/1.1/DTD/svg11.dtd">
<svg xmlns="http://www.w3.org/2000/svg" xmlns:xlink="http://www.w3.org/1999/xlink" version="1.1" width="120.49939pt" height="120.49945pt" viewBox="0 0 120.49939 120.49945">
<g enable-background="new">
<path transform="matrix(1,0,0,-1,60.1308,60.883546)" stroke-width="1.19553" stroke-linecap="butt" stroke-miterlimit="10" stroke-linejoin="miter" fill="none" stroke="#ebebeb" d="M 0 -51.38116 L 0 -51.38116 "/>
<path transform="matrix(1,0,0,-1,60.1308,60.883546)" stroke-width="1.19553" stroke-linecap="butt" stroke-miterlimit="10" stroke-linejoin="miter" fill="none" stroke="#ebebeb" d="M 0 -54.76102 L 0 -54.76102 "/>
<path transform="matrix(1,0,0,-1,60.1308,60.883546)" stroke-width="1.19553" stroke-linecap="butt" stroke-miterlimit="10" stroke-linejoin="miter" fill="none" stroke="#ebebeb" d="M 0 -56.47733 L 0 -56.47733 "/>
<path transform="matrix(1,0,0,-1,60.1308,60.883546)" stroke-width="1.19553" stroke-linecap="butt" stroke-miterlimit="10" stroke-linejoin="miter" fill="none" stroke="#ebebeb" d="M 20.07889 -53.01596 C 7.9011 -57.62813 -7.9011 -57.62813 -20.07889 -53.01596 "/>
<path transform="matrix(1,0,0,-1,60.1308,60.883546)" stroke-width="1.19553" stroke-linecap="butt" stroke-miterlimit="10" stroke-linejoin="miter" fill="none" stroke="#ebebeb" d="M 35.14189 -44.48628 C 26.02739 -51.6864 10.90237 -55.55157 -4.52612 -54.62453 C -16.77245 -53.88869 -27.90749 -50.20139 -35.14195 -44.48628 "/>
<path transform="matrix(1,0,0,-1,60.1308,60.883546)" stroke-width="1.19553" stroke-linecap="butt" stroke-miterlimit="10" stroke-linejoin="miter" fill="none" stroke="#ebebeb" d="M 44.90654 -34.60309 C 33.94606 -48.82787 4.95506 -55.26349 -19.84576 -48.97697 C -31.02501 -46.14354 -39.96649 -41.01506 -44.90657 -34.60309 "/>
<path transform="matrix(1,0,0,-1,60.1308,60.883546)" stroke-width="1.19553" stroke-linecap="butt" stroke-miterlimit="10" stroke-linejoin="miter" fill="none" stroke="#ebebeb" d="M 51.51485 -23.66882 C 44.01901 -39.98758 14.87784 -49.73062 -13.57315 -45.43121 C -32.12617 -42.62758 -46.62686 -34.31035 -51.51488 -23.66882 "/>
<path transform="matrix(1,0,0,-1,60.1308,60.883546)" stroke-width="1.19553" stroke-linecap="butt" stroke-miterlimit="10" stroke-linejoin="miter" fill="none" stroke="#ebebeb" d="M 55.40431 -12.01556 C 51.59955 -29.56644 23.70868 -42.0241 -6.8905 -39.8418 C -32.25963 -38.03233 -52.24962 -26.5666 -55.40434 -12.01556 "/>
<path transform="matrix(1,0,0,-1,60.1308,60.883546)" stroke-width="1.19553" stroke-linecap="butt" stroke-miterlimit="10" stroke-linejoin="miter" fill="none" stroke="#ebebeb" d="M 56.69362 0 C 56.69362 -17.95952 31.31142 -32.51819 0 -32.51819 C -31.31142 -32.51819 -56.69362 -17.95952 -56.69362 0 "/>
<path transform="matrix(1,0,0,-1,60.1308,60.883546)" stroke-width="1.19553" stroke-linecap="butt" stroke-miterlimit="10" stroke-linejoin="miter" fill="none" stroke="#ebebeb" d="M 55.40431 12.01556 C 59.20908 -5.53531 37.48967 -21.53278 6.89047 -23.71507 C -12.90097 -25.12679 -32.50926 -20.37418 -44.53697 -11.2491 C -53.29747 -4.60248 -57.19682 3.74661 -55.40434 12.01556 "/>
<path transform="matrix(1,0,0,-1,60.1308,60.883546)" stroke-width="1.19553" stroke-linecap="butt" stroke-miterlimit="10" stroke-linejoin="miter" fill="none" stroke="#ebebeb" d="M 51.51485 23.66882 C 59.01068 7.35005 42.02412 -9.36456 13.57312 -13.66397 C -14.87787 -17.96338 -44.01904 -8.22034 -51.51488 8.0984 C -53.85767 13.1998 -53.85767 18.56743 -51.51488 23.66882 "/>
<path transform="matrix(1,0,0,-1,60.1308,60.883546)" stroke-width="1.19553" stroke-linecap="butt" stroke-miterlimit="10" stroke-linejoin="miter" fill="none" stroke="#ebebeb" d="M 44.90654 34.60309 C 55.86703 20.37831 44.64658 3.75021 19.84573 -2.53627 C -4.9551 -8.82278 -33.94609 -2.38716 -44.90657 11.8376 C -50.4917 19.08664 -50.4917 27.35405 -44.90657 34.60309 "/>
<path transform="matrix(1,0,0,-1,60.1308,60.883546)" stroke-width="1.19553" stroke-linecap="butt" stroke-miterlimit="10" stroke-linejoin="miter" fill="none" stroke="#ebebeb" d="M 35.14189 44.48628 C 49.23378 33.3541 44.92436 17.77745 25.5158 9.69475 C 6.10724 1.61206 -21.05006 4.0838 -35.14195 15.216 C -46.18948 23.94296 -46.18948 35.75934 -35.14195 44.48628 "/>
<path transform="matrix(1,0,0,-1,60.1308,60.883546)" stroke-width="1.19553" stroke-linecap="butt" stroke-miterlimit="10" stroke-linejoin="miter" fill="none" stroke="#ebebeb" d="M 20.07889 53.01596 C 36.87311 46.6557 41.49788 33.69052 30.40887 24.05794 C 19.31987 14.42537 -3.28467 11.77275 -20.07889 18.13303 C -30.94159 22.24667 -37.15504 29.37463 -36.3749 36.82727 C -35.6876 43.39197 -29.64706 49.3922 -20.07889 53.01596 "/>
<path transform="matrix(1,0,0,-1,60.1308,60.883546)" stroke-width="1.19553" stroke-linecap="butt" stroke-miterlimit="10" stroke-linejoin="miter" fill="none" stroke="#ebebeb" d="M 0 56.47733 C 15.6557 56.47733 28.3468 49.19798 28.3468 40.21823 C 28.3468 31.23846 15.6557 23.95914 0 23.95914 C -15.6557 23.95914 -28.3468 31.23846 -28.3468 40.21823 C -28.3468 49.19798 -15.6557 56.47733 0 56.47733 "/>
<path transform="matrix(1,0,0,-1,60.1308,60.883546)" stroke-width="1.19553" stroke-linecap="butt" stroke-miterlimit="10" stroke-linejoin="miter" fill="none" stroke="#ebebeb" d="M 0 54.76102 C 10.7093 54.76102 19.39066 49.78186 19.39066 43.63962 C 19.39066 37.49736 10.7093 32.5182 0 32.5182 C -10.7093 32.5182 -19.39066 37.49736 -19.39066 43.63962 C -19.39066 49.78186 -10.7093 54.76102 0 54.76102 "/>
<path transform="matrix(1,0,0,-1,60.1308,60.883546)" stroke-width="1.19553" stroke-linecap="butt" stroke-miterlimit="10" stroke-linejoin="miter" fill="none" stroke="#ebebeb" d="M 0 51.38116 C 5.43706 51.38116 9.84454 48.85324 9.84454 45.73482 C 9.84454 42.61638 5.43706 40.08846 0 40.08846 C -5.43706 40.08846 -9.84454 42.61638 -9.84454 45.73482 C -9.84454 48.85324 -5.43706 51.38116 0 51.38116 "/>
<path transform="matrix(1,0,0,-1,60.1308,60.883546)" stroke-width="1.19553" stroke-linecap="butt" stroke-miterlimit="10" stroke-linejoin="miter" fill="none" stroke="#ebebeb" d="M 56.04298 -8.5478 C 59.89511 16.71 37.92671 41.01292 6.97517 45.7336 C -23.97633 50.45427 -52.19087 33.80566 -56.04301 8.54784 "/>
<path transform="matrix(1,0,0,-1,60.1308,60.883546)" stroke-width="1.19553" stroke-linecap="butt" stroke-miterlimit="10" stroke-linejoin="miter" fill="none" stroke="#ebebeb" d="M 47.86813 -30.37572 C 60.782 -10.02621 49.8191 20.07037 23.38249 36.84642 C -3.05412 53.62248 -34.9543 50.72525 -47.86816 30.37575 "/>
<path transform="matrix(1,0,0,-1,60.1308,60.883546)" stroke-width="1.19553" stroke-linecap="butt" stroke-miterlimit="10" stroke-linejoin="miter" fill="none" stroke="#ebebeb" d="M 35.92323 -43.85504 C 52.17564 -30.54266 49.26744 -.11539 29.42795 24.10472 C 9.58846 48.32484 -19.67084 57.16745 -35.92323 43.85507 "/>
<path transform="matrix(1,0,0,-1,60.1308,60.883546)" stroke-width="1.19553" stroke-linecap="butt" stroke-miterlimit="10" stroke-linejoin="miter" fill="none" stroke="#ebebeb" d="M 24.58801 -51.08055 C 39.44157 -43.92819 40.47418 -15.26062 26.89456 12.95053 C 13.31494 41.1617 -9.73444 58.23293 -24.58801 51.08055 "/>
<path transform="matrix(1,0,0,-1,60.1308,60.883546)" stroke-width="1.19553" stroke-linecap="butt" stroke-miterlimit="10" stroke-linejoin="miter" fill="none" stroke="#ebebeb" d="M 14.64886 -54.76514 C 25.11928 -51.96277 27.04893 -25.17192 18.95856 5.07385 C 10.8682 35.31963 -4.17847 57.56757 -14.6489 54.7652 "/>
<path transform="matrix(1,0,0,-1,60.1308,60.883546)" stroke-width="1.19553" stroke-linecap="butt" stroke-miterlimit="10" stroke-linejoin="miter" fill="none" stroke="#ebebeb" d="M 5.70459 -56.40276 C 10.13536 -55.95393 11.17305 -30.33667 8.02258 .81352 C 4.8721 31.96373 -1.27383 56.85161 -5.70459 56.40279 "/>
<path transform="matrix(1,0,0,-1,60.1308,60.883546)" stroke-width="1.19553" stroke-linecap="butt" stroke-miterlimit="10" stroke-linejoin="miter" fill="none" stroke="#ebebeb" d="M -2.84154 -56.61992 C -5.07408 -56.50635 -5.61165 -31.0647 -4.04231 .20589 C -2.47299 31.4765 .60898 56.7335 2.84154 56.61995 "/>
<path transform="matrix(1,0,0,-1,60.1308,60.883546)" stroke-width="1.19553" stroke-linecap="butt" stroke-miterlimit="10" stroke-linejoin="miter" fill="none" stroke="#ebebeb" d="M -11.58658 -55.49379 C -20.17296 -53.69925 -21.94586 -27.3982 -15.5469 3.25009 C -9.14795 33.89838 3.0002 57.28835 11.58658 55.49379 "/>
<path transform="matrix(1,0,0,-1,60.1308,60.883546)" stroke-width="1.19553" stroke-linecap="butt" stroke-miterlimit="10" stroke-linejoin="miter" fill="none" stroke="#ebebeb" d="M -21.12918 -52.60501 C -34.77931 -47.12067 -36.38498 -19.12276 -24.71562 9.9303 C -13.04626 38.98338 7.47905 58.08936 21.12918 52.60501 "/>
<path transform="matrix(1,0,0,-1,60.1308,60.883546)" stroke-width="1.19553" stroke-linecap="butt" stroke-miterlimit="10" stroke-linejoin="miter" fill="none" stroke="#ebebeb" d="M -31.99019 -46.80144 C -48.20993 -35.71501 -47.03635 -5.77393 -29.36864 20.07367 C -11.70093 45.9213 15.77046 57.8879 31.99022 46.80147 "/>
<path transform="matrix(1,0,0,-1,60.1308,60.883546)" stroke-width="1.19553" stroke-linecap="butt" stroke-miterlimit="10" stroke-linejoin="miter" fill="none" stroke="#ebebeb" d="M -43.98785 -35.76266 C -58.65152 -17.727 -50.84497 12.90521 -26.55109 32.65633 C -2.2572 52.40742 29.3242 53.79832 43.98785 35.76266 "/>
<path transform="matrix(1,0,0,-1,60.1308,60.883546)" stroke-width="1.19553" stroke-linecap="butt" stroke-miterlimit="10" stroke-linejoin="miter" fill="none" stroke="#ebebeb" d="M -54.1903 -16.65671 C -61.6107 7.487 -43.36552 34.51682 -13.43681 43.71564 C 16.49188 52.91446 46.7699 40.80046 54.1903 16.65674 "/>
<path transform="matrix(1,0,0,-1,60.1308,60.883546)" stroke-width="1.19553" stroke-linecap="butt" stroke-miterlimit="10" stroke-linejoin="miter" fill="none" stroke="#ebebeb" d="M 56.69382 0 C 56.69382 31.31152 31.31152 56.69382 0 56.69382 C -31.31152 56.69382 -56.69382 31.31152 -56.69382 0 C -56.69382 -31.31152 -31.31152 -56.69382 0 -56.69382 C 31.31152 -56.69382 56.69382 -31.31152 56.69382 0 Z M 0 0 "/>
<text xml:space="preserve" transform="matrix(1 0 -0 1 -245.9072 669.2515)" font-size="9.9626" font-family="CMR10"><tspan y="-89.365" x="303.133">1</tspan></text>
</g>
</svg>
